<?xml version="1.0" encoding="UTF-8"?>
<svg width="699px" height="699px" viewBox="0 0 699 699" version="1.1" xmlns="http://www.w3.org/2000/svg" xmlns:xlink="http://www.w3.org/1999/xlink">
    <defs>
        <rect id="path-1" x="0" y="0" width="699" height="699" rx="50"></rect>
        <linearGradient x1="-10.8359416%" y1="-13.757202%" x2="105.46917%" y2="104.525981%" id="linearGradient-3">
            <stop stop-color="#763EEA" offset="0%"></stop>
            <stop stop-color="#261C58" offset="91.520371%"></stop>
            <stop stop-color="#332222" offset="100%"></stop>
        </linearGradient>
    </defs>
    <g id="Page-1" stroke="none" stroke-width="1" fill="none" fill-rule="evenodd">
        <g id="Group-9-Copy">
            <mask id="mask-2" fill="white">
                <use xlink:href="#path-1"></use>
            </mask>
            <rect stroke="#979797" x="0.5" y="0.5" width="698" height="698" rx="50"></rect>
            <g mask="url(#mask-2)">
                <g transform="translate(-35.000000, -39.000000)">
                    <path d="M49,0 L726,0 C753.614237,-1.21780805e-14 776,22.3857625 776,50 L776,713 C776,747.793939 747.793939,776 713,776 L50,776 C22.3857625,776 3.38176876e-15,753.614237 0,726 L0,49 C-3.31413338e-15,21.9380473 21.9380473,4.97120007e-15 49,0 Z" id="Rectangle" stroke="none" fill="url(#linearGradient-3)" fill-rule="evenodd"></path>
                    <line x1="131.5" y1="66" x2="131.5" y2="842" id="Path-20" stroke="#7B7272" stroke-width="1" fill="none" stroke-dasharray="6"></line>
                    <line x1="812" y1="167.5" x2="36" y2="167.5" id="Path-20-Copy-7" stroke="#7B7272" stroke-width="1" fill="none" stroke-dasharray="6"></line>
                    <line x1="227.5" y1="66" x2="227.5" y2="842" id="Path-20-Copy" stroke="#7B7272" stroke-width="1" fill="none" stroke-dasharray="6"></line>
                    <line x1="812" y1="264.5" x2="36" y2="264.5" id="Path-20-Copy-8" stroke="#7B7272" stroke-width="1" fill="none" stroke-dasharray="6"></line>
                    <line x1="323.5" y1="66" x2="323.5" y2="842" id="Path-20-Copy-2" stroke="#7B7272" stroke-width="1" fill="none" stroke-dasharray="6"></line>
                    <line x1="812" y1="359.5" x2="36" y2="359.5" id="Path-20-Copy-9" stroke="#7B7272" stroke-width="1" fill="none" stroke-dasharray="6"></line>
                    <line x1="418.5" y1="66" x2="418.5" y2="842" id="Path-20-Copy-3" stroke="#7B7272" stroke-width="1" fill="none" stroke-dasharray="6"></line>
                    <line x1="812" y1="454.5" x2="36" y2="454.5" id="Path-20-Copy-10" stroke="#7B7272" stroke-width="1" fill="none" stroke-dasharray="6"></line>
                    <line x1="513.5" y1="66" x2="513.5" y2="842" id="Path-20-Copy-4" stroke="#7B7272" stroke-width="1" fill="none" stroke-dasharray="6"></line>
                    <line x1="812" y1="550.5" x2="36" y2="550.5" id="Path-20-Copy-11" stroke="#7B7272" stroke-width="1" fill="none" stroke-dasharray="6"></line>
                    <line x1="609.5" y1="66" x2="609.5" y2="842" id="Path-20-Copy-5" stroke="#7B7272" stroke-width="1" fill="none" stroke-dasharray="6"></line>
                    <line x1="812" y1="645.5" x2="36" y2="645.5" id="Path-20-Copy-12" stroke="#7B7272" stroke-width="1" fill="none" stroke-dasharray="6"></line>
                    <line x1="704.5" y1="66" x2="704.5" y2="842" id="Path-20-Copy-6" stroke="#7B7272" stroke-width="1" fill="none" stroke-dasharray="6"></line>
                    <g id="Group-7" stroke="none" stroke-width="1" fill="none" fill-rule="evenodd" transform="translate(94.159850, 121.000000)">
                        <g id="Group-8" transform="translate(1146.938555, 593.002686) rotate(13.000000) translate(-1146.938555, -593.002686) translate(51.975789, 237.193666)">
                            <line x1="186.190043" y1="98.2046407" x2="81.2465641" y2="342.023059" id="Path-19" stroke="#AAA0B8" stroke-width="4" stroke-linecap="round"></line>
                            <path d="M1306.71557,193.022915 C903.088673,-28.3887603 528.451738,-59.3186605 182.804769,100.233214" id="Path-13" stroke="#AAA0B8" stroke-width="12" stroke-linecap="round"></path>
                            <ellipse id="Oval" fill="#AAA0B8" cx="81.2465641" cy="342.023059" rx="81.2465641" ry="81.2728061"></ellipse>
                        </g>
                    </g>
                </g>
            </g>
        </g>
    </g>
</svg>