<?xml version="1.0" encoding="UTF-8"?>
<svg width="700px" height="699px" viewBox="0 0 700 699" version="1.1" xmlns="http://www.w3.org/2000/svg" xmlns:xlink="http://www.w3.org/1999/xlink">
    <title>Group 11</title>
    <defs>
        <linearGradient x1="-10.8359416%" y1="-13.757202%" x2="105.46917%" y2="104.525981%" id="linearGradient-1">
            <stop stop-color="#763EEA" offset="0%"></stop>
            <stop stop-color="#261C58" offset="91.520371%"></stop>
            <stop stop-color="#332222" offset="100%"></stop>
        </linearGradient>
    </defs>
    <g id="Page-1" stroke="none" stroke-width="1" fill="none" fill-rule="evenodd">
        <g id="Group-8">
            <g id="Group-9">
                <path d="M49,0 L649,0 C676.614237,2.03277422e-15 699,22.3857625 699,50 L699,636 C699,670.793939 670.793939,699 636,699 L50,699 C22.3857625,699 3.38176876e-15,676.614237 0,649 L0,49 C-3.31413338e-15,21.9380473 21.9380473,4.97120007e-15 49,0 Z" id="Rectangle" fill="url(#linearGradient-1)"></path>
                <line x1="86.4843568" y1="0" x2="86.4843568" y2="699" id="Path-20" stroke="#7B7272" stroke-dasharray="6"></line>
                <line x1="699.484357" y1="91" x2="0.484356758" y2="91" id="Path-20-Copy-7" stroke="#7B7272" stroke-dasharray="6"></line>
                <line x1="173.484357" y1="0" x2="173.484357" y2="699" id="Path-20-Copy" stroke="#7B7272" stroke-dasharray="6"></line>
                <line x1="699.484357" y1="178" x2="0.484356758" y2="178" id="Path-20-Copy-8" stroke="#7B7272" stroke-dasharray="6"></line>
                <line x1="259.484357" y1="0" x2="259.484357" y2="699" id="Path-20-Copy-2" stroke="#7B7272" stroke-dasharray="6"></line>
                <line x1="699.484357" y1="264" x2="0.484356758" y2="264" id="Path-20-Copy-9" stroke="#7B7272" stroke-dasharray="6"></line>
                <line x1="345.484357" y1="0" x2="345.484357" y2="699" id="Path-20-Copy-3" stroke="#7B7272" stroke-dasharray="6"></line>
                <line x1="699.484357" y1="350" x2="0.484356758" y2="350" id="Path-20-Copy-10" stroke="#7B7272" stroke-dasharray="6"></line>
                <line x1="431.484357" y1="0" x2="431.484357" y2="699" id="Path-20-Copy-4" stroke="#7B7272" stroke-dasharray="6"></line>
                <line x1="699.484357" y1="436" x2="0.484356758" y2="436" id="Path-20-Copy-11" stroke="#7B7272" stroke-dasharray="6"></line>
                <line x1="517.484357" y1="0" x2="517.484357" y2="699" id="Path-20-Copy-5" stroke="#7B7272" stroke-dasharray="6"></line>
                <line x1="699.484357" y1="522" x2="0.484356758" y2="522" id="Path-20-Copy-12" stroke="#7B7272" stroke-dasharray="6"></line>
                <line x1="603.484357" y1="0" x2="603.484357" y2="699" id="Path-20-Copy-6" stroke="#7B7272" stroke-dasharray="6"></line>
                <line x1="699.484357" y1="608" x2="0.484356758" y2="608" id="Path-20-Copy-13" stroke="#7B7272" stroke-dasharray="6"></line>
            </g>
            <g id="Group-7" transform="translate(44.000000, 202.786944)">
                <line x1="323" y1="286.713056" x2="571" y2="286.713056" id="Path-21" stroke="#C8C0C0" stroke-width="16"></line>
                <path d="M124.149418,310.713056 C256.96308,310.713056 405.810247,310.713056 570.690919,310.713056" id="Path-21-Copy" stroke="#C8C0C0" stroke-width="16"></path>
                <polyline id="Path-22" stroke="#C8C0C0" stroke-width="16" points="374 287.213056 459.821121 160.213056 545 287.213056"></polyline>
                <line x1="459.5" y1="160.213056" x2="459.5" y2="115.213056" id="Path-23" stroke="#C8C0C0" stroke-width="16"></line>
                <line x1="478.559009" y1="137.508501" x2="556.85668" y2="203.985074" id="Path-24" stroke="#C8C0C0" stroke-width="16" transform="translate(517.707844, 170.746788) rotate(1.000000) translate(-517.707844, -170.746788) "></line>
                <line x1="538.958853" y1="215.429957" x2="563.588967" y2="183.335262" id="Path-26" stroke="#C8C0C0" stroke-width="16" transform="translate(551.273910, 199.382610) rotate(3.000000) translate(-551.273910, -199.382610) "></line>
                <line x1="551.112484" y1="225.581126" x2="575.742599" y2="193.486431" id="Path-26-Copy" stroke="#C8C0C0" stroke-width="16" transform="translate(563.427542, 209.533778) rotate(3.000000) translate(-563.427542, -209.533778) "></line>
                <line x1="563.267201" y1="235.690857" x2="587.897315" y2="203.596162" id="Path-26-Copy-2" stroke="#C8C0C0" stroke-width="16" transform="translate(575.582258, 219.643509) rotate(3.000000) translate(-575.582258, -219.643509) "></line>
                <path d="M95.8311427,29.0921538 C95.8311427,29.0921538 269.868185,-66.4978419 443.905227,108.454414" id="Path-25" stroke="#C8C0C0" stroke-width="16" transform="translate(269.868185, 55.741876) rotate(-1.000000) translate(-269.868185, -55.741876) "></path>
                <circle id="Oval" fill="#C8C0C0" cx="25.5" cy="120.713056" r="25.5"></circle>
            </g>
        </g>
    </g>
</svg>